<svg role="presentation" fill="#000000" xmlns="http://www.w3.org/2000/svg" viewBox="0 0 90 90">
    <path d="M90 28H80V16.4L63.6 0H10v28H0v40h10v22h70V68h10V28zM65 8.5l6.5 6.5H65V8.5zM15 5h45v15h15v8H15V5zm60 80H15V68h60v17zm10-22H5V33h80v30z"></path>
    <path class="st0" d="M35 50.5v-5c0-4.1-3.4-7.5-7.5-7.5H20v20h7.5c4.1 0 7.5-3.4 7.5-7.5zM25 43h2.5c1.4 0 2.5 1.1 2.5 2.5v5c0 1.4-1.1 2.5-2.5 2.5H25V43zM45 58c4.1 0 7.5-3.4 7.5-7.5v-5c0-4.1-3.4-7.5-7.5-7.5s-7.5 3.4-7.5 7.5v5c0 4.1 3.4 7.5 7.5 7.5zm-2.5-12.5c0-1.4 1.1-2.5 2.5-2.5s2.5 1.1 2.5 2.5v5c0 1.4-1.1 2.5-2.5 2.5s-2.5-1.1-2.5-2.5v-5zM62.5 58H70v-5h-7.5c-1.4 0-2.5-1.1-2.5-2.5v-5c0-1.4 1.1-2.5 2.5-2.5H70v-5h-7.5c-4.1 0-7.5 3.4-7.5 7.5v5c0 4.1 3.4 7.5 7.5 7.5z"></path>
</svg>